<svg xmlns="http://www.w3.org/2000/svg" width="98.493" height="91.081" viewBox="0 0 98.493 91.081"><defs><style>.a,.b,.c{fill:#2a2a2a;}.a{opacity:0.04;}.b,.d{fill-rule:evenodd;}.d,.e{fill:#ff2f4d;}</style></defs><g transform="translate(-1000.033 -9674)"><g transform="translate(991.91 9671.024)"><path class="a" d="M69.142,91.743c18.648-3.858,33.331-17.956,36.791-35.667a32.054,32.054,0,0,0,.633-8.105C105.687,34.732,99.6,36.448,90.185,36s-6.472-7.856-4.1-20.2S61.732,1.1,44.517,18.291,2.848,9.985,9.131,64.775C12.92,97.789,48.353,96.047,69.142,91.743Z"/><path class="b" d="M32.285,30.374V35H35a.938.938,0,0,1,.4.063.174.174,0,0,1,.063.046.249.249,0,0,1,.03.044l8.135,31,.011.036,2.215-.659c-2.215.659-2.215.66-2.215.661v0l0,.005,0,.011.007.023.018.056c.014.041.031.09.052.145.042.11.1.249.179.408a5.159,5.159,0,0,0,.77,1.139,5.089,5.089,0,0,0,3.9,1.685H73.886V65.041H48.564c-.324,0-.408-.1-.442-.135l0,0a.545.545,0,0,1-.067-.094l-.7-2.682L73.7,55.731a6.089,6.089,0,0,0,4.32-4.1A107.272,107.272,0,0,0,80.78,40.044l.513-2.737H40.835l-.886-3.375v-.009l-.014-.051c-.012-.044-.028-.1-.047-.155a4.464,4.464,0,0,0-.166-.431,4.869,4.869,0,0,0-.758-1.2A5.071,5.071,0,0,0,35,30.374Zm40.32,20.866-26.36,6.4L42.2,41.93H75.692a84.2,84.2,0,0,1-2.048,8.205A1.489,1.489,0,0,1,72.605,51.239Z"/><circle class="c" cx="4.622" cy="4.622" r="4.622" transform="translate(41.53 71.975)"/><circle class="c" cx="4.622" cy="4.622" r="4.622" transform="translate(64.641 71.975)"/></g><g transform="translate(1038.263 9673.643)"><path class="d" d="M12.575,1.16a1.625,1.625,0,0,1,3.025.825V9.479h4.035a1.625,1.625,0,0,1,1.4,2.45l-7.61,12.91a1.625,1.625,0,0,1-3.025-.825V16.521H6.365a1.625,1.625,0,0,1-1.4-2.45Zm.858,2.811L7.313,14.354h3.629a1.625,1.625,0,0,1,1.625,1.625v6.05l6.121-10.383H15.059a1.625,1.625,0,0,1-1.625-1.625Z"/><path class="e" d="M11.323,15.516l.419,8.387,7.968-13-5.032-.839L13.419,2.1,6.29,15.516Z"/></g></g></svg>