<svg xmlns="http://www.w3.org/2000/svg" width="233.281" height="92.477" viewBox="0 0 233.281 92.477"><defs><style>.a{opacity:0.5;}.b,.e,.f{fill:#2a2a2a;}.b{opacity:0.04;}.c{fill:#ff2f4d;}.d{fill:#fff;}.d,.e{fill-rule:evenodd;}</style></defs><g transform="translate(-1525 -9509.604)"><path class="a" d="M8.7,4.36H5.14V.8H3.86V4.36H.3V5.64H3.86V9.2H5.14V5.64H8.7Z" transform="translate(1630.941 9554.809)"/><g transform="translate(1651 9508.982)"><path class="b" d="M45.415,6.5C26.434,6.637,9.329,17.856,2.487,34.959a33.566,33.566,0,0,0-2.2,8.018C-1.441,56.46,4.846,55.958,13.959,58.3s4.791,9.194.058,21.118,20.937,19.668,41.121,5.85S94.245,101.98,98.8,45.657C101.55,11.719,66.575,6.354,45.415,6.5Z"/><path class="c" d="M66.947,24.5a.413.413,0,0,1,.386-.546c4.717,0,18.009-10.332,19.236-7.868l4.965,9.973a.316.316,0,0,1-.267.451c-6.464.427-16.331,9.288-19.383,7.792a.267.267,0,0,1-.12-.123Z"/><path class="d" d="M80.832,24.186a1.5,1.5,0,0,0-1.007.024l-.01-.021a1.6,1.6,0,0,0,.469-.737,1.164,1.164,0,0,0-.077-.836,1.105,1.105,0,0,0-.862-.631,2.089,2.089,0,0,0-1,.151l-.338-.68-.565.281.328.658-.356.177-.328-.658-.565.281.328.658-1.382.688.391.786.44-.219a.322.322,0,0,1,.441.151L78.1,27a.322.322,0,0,1-.145.443l-.44.219.391.786,1.382-.688.328.658.565-.281-.328-.658.356-.177.328.658.565-.281-.328-.658a2.009,2.009,0,0,0,.815-.882,1.462,1.462,0,0,0-.047-1.3A1.205,1.205,0,0,0,80.832,24.186Zm-2.979-.94.084-.042a.915.915,0,0,1,.65-.112.492.492,0,0,1,.326.288.6.6,0,0,1,.054.476l-.021.063a.867.867,0,0,1-.439.431l-.021.01-.335.167-.126.063-.581-1.168.126-.063.272-.135Zm2.266,2.767a.482.482,0,0,1,.042-.074.614.614,0,0,0-.023-.571.587.587,0,0,0-.442-.363.487.487,0,0,0-.168-.022,1.111,1.111,0,0,0-.5.144l-.1.052-.356.177-.126.063.645,1.3.126-.062.356-.177.1-.052a1.1,1.1,0,0,0,.408-.336A.484.484,0,0,0,80.119,26.013Z"/><path class="c" d="M71.977,43.764a.45.45,0,0,1,.637-.286c3.236,1.713,15.235.48,15.047,2.479-.318,3.376-.516,5.478-.763,8.108a.322.322,0,0,1-.468.246c-4.286-2.167-13.775-.51-15.147-2.6a.258.258,0,0,1-.038-.168Q71.611,47.654,71.977,43.764Z"/><path class="d" d="M80.871,48.822a1.116,1.116,0,0,0-.644-.379l0-.018a1.188,1.188,0,0,0,.584-.281.865.865,0,0,0,.279-.557.82.82,0,0,0-.3-.735,1.55,1.55,0,0,0-.687-.295L80.161,46l-.467-.044-.051.543-.294-.028.051-.543-.467-.044-.051.543-1.141-.107-.061.648.363.034a.239.239,0,0,1,.219.268l-.213,2.261a.239.239,0,0,1-.265.223l-.363-.034-.061.649,1.141.107-.051.543.467.044.051-.543.294.028-.051.543.467.044.051-.543a1.491,1.491,0,0,0,.859-.237,1.085,1.085,0,0,0,.48-.839A.9.9,0,0,0,80.871,48.822Zm-1.51-1.759.069.007a.68.68,0,0,1,.453.184.365.365,0,0,1,.093.309.442.442,0,0,1-.152.322l-.038.032a.644.644,0,0,1-.445.1l-.017,0-.277-.026-.1-.01.091-.964.1.01.225.021Zm.345,2.632a.358.358,0,0,1,.055-.03.456.456,0,0,0,.209-.369.435.435,0,0,0-.136-.4.362.362,0,0,0-.1-.08.824.824,0,0,0-.374-.106l-.086-.008-.294-.028-.1-.01-.1,1.069.1.01.294.028.086.008a.819.819,0,0,0,.389-.052A.356.356,0,0,0,79.706,49.7Z"/><path class="c" d="M89.794,35.977a.45.45,0,0,1,.179-.675c3.367-1.437,9.962-11.537,11.4-10.133l5.82,5.7a.322.322,0,0,1-.1.519c-4.381,1.966-9.066,10.384-11.554,10.135a.258.258,0,0,1-.154-.076Z"/><path class="d" d="M99.323,32.249a1.116,1.116,0,0,0-.7.262L98.61,32.5a1.188,1.188,0,0,0,.149-.631A.864.864,0,0,0,98.5,31.3a.82.82,0,0,0-.758-.232,1.549,1.549,0,0,0-.661.349l-.4-.394-.328.335.39.382-.206.211-.39-.382-.328.335.39.382-.8.819.466.455.255-.26a.239.239,0,0,1,.346,0L98.1,34.886a.239.239,0,0,1,.006.346l-.255.261.466.456.8-.819.39.382.328-.335-.39-.382.206-.211.391.382.327-.335-.39-.382a1.493,1.493,0,0,0,.357-.817,1.086,1.086,0,0,0-.35-.9A.9.9,0,0,0,99.323,32.249ZM97,32.315l.049-.05a.68.68,0,0,1,.428-.236.365.365,0,0,1,.3.123.442.442,0,0,1,.154.321v.049a.644.644,0,0,1-.2.409l-.012.012-.194.2-.073.075-.692-.677.073-.075.158-.161ZM99.268,33.7a.366.366,0,0,1,.011-.062.456.456,0,0,0-.155-.4.435.435,0,0,0-.4-.147.363.363,0,0,0-.123.025.824.824,0,0,0-.317.224l-.061.062-.206.211-.073.074.767.751.073-.074.206-.211.061-.062a.818.818,0,0,0,.2-.335A.377.377,0,0,0,99.268,33.7Z"/><path class="c" d="M72.422,8.428a.5.5,0,0,1,.176-.717C75.043,6.441,79.56-.258,80.537.719l3.974,3.97a.331.331,0,0,1-.1.525c-3.062,1.454-6.35,7.158-8.091,7.027a.246.246,0,0,1-.153-.076Z"/><path class="d" d="M79.038,5.711a.789.789,0,0,0-.5.18l-.009-.009a.841.841,0,0,0,.11-.445.612.612,0,0,0-.178-.4.58.58,0,0,0-.535-.17,1.1,1.1,0,0,0-.47.242l-.282-.282-.234.235.273.273-.148.148L76.8,5.207l-.234.235.273.273-.573.573.326.326.182-.182a.169.169,0,0,1,.245,0l1.136,1.135a.169.169,0,0,1,0,.245l-.182.182.326.326.573-.573.273.273.234-.235L79.1,7.512l.147-.148.273.273.234-.235-.273-.273a1.055,1.055,0,0,0,.258-.575.768.768,0,0,0-.241-.64A.633.633,0,0,0,79.038,5.711Zm-1.64.03.035-.035a.481.481,0,0,1,.3-.164.258.258,0,0,1,.211.089.313.313,0,0,1,.107.228v.035a.456.456,0,0,1-.146.288L77.9,6.19l-.139.139-.052.052L77.225,5.9l.052-.052.113-.113Zm1.59,1A.256.256,0,0,1,79,6.7a.322.322,0,0,0-.107-.28.308.308,0,0,0-.281-.107.257.257,0,0,0-.087.017.583.583,0,0,0-.226.156l-.043.043-.147.148-.052.052.537.537.052-.052.147-.148.043-.043a.579.579,0,0,0,.147-.235A.265.265,0,0,0,78.989,6.74Z"/><path class="e" d="M16.724,47.451a6.657,6.657,0,0,1,3.286-8.823L50.283,24.786a6.657,6.657,0,0,1,8.823,3.286L62.8,36.144a6.657,6.657,0,0,1-3.286,8.823L48.48,50.012,47.4,56.738a2.218,2.218,0,0,1-1.414,1.728L47.6,68.625l1.824,1.107A2.219,2.219,0,0,1,50.485,71.4l.28,2.748a2.219,2.219,0,0,1-1.826,2.411L35.38,78.929A2.219,2.219,0,0,1,32.8,77.053L30.167,58.386l-.928.424a6.657,6.657,0,0,1-8.823-3.286Zm24.821.851-.025.011-10.494,4.8L31,53.124l-3.608,1.65a2.219,2.219,0,0,1-2.941-1.1l-3.691-8.073a2.219,2.219,0,0,1,1.1-2.941L52.129,28.822a2.219,2.219,0,0,1,2.941,1.1l2.307,5.045,4.035-1.845.923,2.018L58.3,36.98l.462,1.01a2.219,2.219,0,0,1-1.1,2.941ZM34.377,56.46l2.5,17.7,8.776-1.531-1.228-.745a2.219,2.219,0,0,1-1.04-1.548L40.711,53.564Z"/><path class="f" d="M35.7,43.566l1.2,2.606a.344.344,0,0,1-.168.457l-.6.276a.344.344,0,0,1-.457-.168l-1.164-2.521a.859.859,0,0,0-1.212-.533c-.54.25-.715.767-.387,1.478L34,47.512a.344.344,0,0,1-.167.456l-.6.276a.344.344,0,0,1-.457-.168l-1.164-2.521a.859.859,0,0,0-1.212-.533c-.521.241-.725.772-.4,1.483l1.086,2.35a.344.344,0,0,1-.168.457l-.6.276a.344.344,0,0,1-.457-.168l-1.9-4.113a.344.344,0,0,1,.168-.457l.6-.276a.344.344,0,0,1,.457.168l.088.19a1.648,1.648,0,0,1,1.024-1.243,1.565,1.565,0,0,1,1.6.087,1.788,1.788,0,0,1,1.1-1.335A1.942,1.942,0,0,1,35.7,43.566Z"/><path class="f" d="M44.782,35.3l2.7,5.844a.335.335,0,0,1-.163.444l-.581.269a.335.335,0,0,1-.444-.164l-.111-.24A1.973,1.973,0,0,1,45,42.811a2.689,2.689,0,0,1-2.248-4.867,1.973,1.973,0,0,1,1.8-.017l-.962-2.083a.335.335,0,0,1,.164-.444l.581-.268a.335.335,0,0,1,.444.164Zm.587,4.393a1.406,1.406,0,1,0-.672,1.887A1.362,1.362,0,0,0,45.368,39.688Z"/><path class="f" d="M50.235,39.085a1.483,1.483,0,0,0,.743-.713.338.338,0,0,1,.337-.2l.559.051a.335.335,0,0,1,.285.444,2.807,2.807,0,0,1-5.092.238,2.622,2.622,0,1,1,4.761-2.2c.033.072.062.142.088.212a.335.335,0,0,1-.174.419l-3.207,1.481A1.334,1.334,0,0,0,50.235,39.085Zm.207-2.263a1.231,1.231,0,0,0-1.573-.4,1.265,1.265,0,0,0-.777,1.487Z"/><path class="c" d="M39.054,43.34a.67.67,0,1,0-.889-.327A.67.67,0,0,0,39.054,43.34Z"/><path class="f" d="M37.446,40.411a2.679,2.679,0,1,1,1.135,5,.652.652,0,0,1,.1-1.3,1.374,1.374,0,1,0-1.093-.688.652.652,0,1,1-1.132.648,2.682,2.682,0,0,1,.993-3.657Z"/></g><g transform="translate(1516.804 9508.024)"><path class="b" d="M69.215,91.743c18.648-3.858,33.331-17.956,36.791-35.667a32.053,32.053,0,0,0,.633-8.105C105.76,34.732,99.671,36.448,90.258,36s-6.472-7.856-4.1-20.2S61.805,1.1,44.59,18.291,2.921,9.985,9.2,64.775C12.993,97.789,48.426,96.047,69.215,91.743Z"/><path class="e" d="M32.358,30.374V35h2.713a.939.939,0,0,1,.4.063.175.175,0,0,1,.063.046.259.259,0,0,1,.03.044l8.135,31,.011.036,2.215-.659c-2.215.659-2.215.66-2.215.661V66.2l0,.011.007.023.018.056c.014.041.031.09.052.145.042.11.1.249.179.408a5.159,5.159,0,0,0,.77,1.139,5.089,5.089,0,0,0,3.9,1.685H73.959V65.041H48.637c-.324,0-.408-.1-.442-.135l0,0a.547.547,0,0,1-.067-.094l-.7-2.682,26.348-6.393a6.089,6.089,0,0,0,4.32-4.1,107.262,107.262,0,0,0,2.765-11.592l.513-2.737H40.908l-.886-3.375v-.009l-.014-.051c-.012-.044-.028-.1-.047-.155a4.441,4.441,0,0,0-.166-.431,4.869,4.869,0,0,0-.758-1.2,5.071,5.071,0,0,0-3.964-1.715Zm40.32,20.866-26.36,6.4L42.273,41.93H75.765a84.194,84.194,0,0,1-2.048,8.2A1.489,1.489,0,0,1,72.679,51.239Z"/><circle class="f" cx="4.622" cy="4.622" r="4.622" transform="translate(41.603 71.975)"/><circle class="f" cx="4.622" cy="4.622" r="4.622" transform="translate(64.715 71.975)"/></g></g></svg>