<svg width="129" height="89" viewBox="0 0 129 89" fill="none" xmlns="http://www.w3.org/2000/svg">
<g opacity="0.21">
<ellipse cx="118.75" cy="42.7357" rx="0.961075" ry="0.979255" transform="rotate(90 118.75 42.7357)" fill="#C4C4C4"/>
<ellipse cx="120.709" cy="46.58" rx="0.961072" ry="0.979244" transform="rotate(90 120.709 46.58)" fill="#C4C4C4"/>
<ellipse cx="116.792" cy="46.58" rx="0.961072" ry="0.979244" transform="rotate(90 116.792 46.58)" fill="#C4C4C4"/>
<ellipse cx="118.75" cy="50.4243" rx="0.961075" ry="0.979255" transform="rotate(90 118.75 50.4243)" fill="#C4C4C4"/>
<ellipse cx="114.833" cy="50.4243" rx="0.961075" ry="0.979244" transform="rotate(90 114.833 50.4243)" fill="#C4C4C4"/>
<ellipse cx="120.709" cy="54.2686" rx="0.961075" ry="0.979244" transform="rotate(90 120.709 54.2686)" fill="#C4C4C4"/>
<ellipse cx="116.792" cy="54.2686" rx="0.961075" ry="0.979244" transform="rotate(90 116.792 54.2686)" fill="#C4C4C4"/>
<ellipse cx="120.708" cy="38.8914" rx="0.961073" ry="0.979255" transform="rotate(90 120.708 38.8914)" fill="#C4C4C4"/>
<ellipse cx="116.792" cy="38.8914" rx="0.961075" ry="0.979244" transform="rotate(90 116.792 38.8914)" fill="#C4C4C4"/>
<ellipse cx="112.875" cy="38.8914" rx="0.961075" ry="0.979255" transform="rotate(90 112.875 38.8914)" fill="#C4C4C4"/>
<ellipse cx="108.958" cy="38.8914" rx="0.961075" ry="0.979255" transform="rotate(90 108.958 38.8914)" fill="#C4C4C4"/>
<ellipse cx="112.875" cy="46.58" rx="0.961072" ry="0.979255" transform="rotate(90 112.875 46.58)" fill="#C4C4C4"/>
<ellipse cx="108.958" cy="46.58" rx="0.961072" ry="0.979255" transform="rotate(90 108.958 46.58)" fill="#C4C4C4"/>
<ellipse cx="110.916" cy="42.7357" rx="0.961075" ry="0.979255" transform="rotate(90 110.916 42.7357)" fill="#C4C4C4"/>
<ellipse cx="106.999" cy="42.7357" rx="0.961075" ry="0.979255" transform="rotate(90 106.999 42.7357)" fill="#C4C4C4"/>
<ellipse cx="110.916" cy="50.4243" rx="0.961072" ry="0.979255" transform="rotate(90 110.916 50.4243)" fill="#C4C4C4"/>
<ellipse cx="106.999" cy="50.4243" rx="0.961072" ry="0.979255" transform="rotate(90 106.999 50.4243)" fill="#C4C4C4"/>
<ellipse cx="112.875" cy="54.2686" rx="0.961075" ry="0.979255" transform="rotate(90 112.875 54.2686)" fill="#C4C4C4"/>
<ellipse cx="108.958" cy="54.2686" rx="0.961075" ry="0.979255" transform="rotate(90 108.958 54.2686)" fill="#C4C4C4"/>
<ellipse cx="114.833" cy="42.7357" rx="0.961075" ry="0.979244" transform="rotate(90 114.833 42.7357)" fill="#C4C4C4"/>
</g>
<g opacity="0.21">
<ellipse cx="37.2766" cy="23.2579" rx="0.961073" ry="0.979249" transform="rotate(90 37.2766 23.2579)" fill="#C4C4C4"/>
<ellipse cx="39.2351" cy="27.1022" rx="0.961073" ry="0.979249" transform="rotate(90 39.2351 27.1022)" fill="#C4C4C4"/>
<ellipse cx="35.3181" cy="27.1022" rx="0.961073" ry="0.979249" transform="rotate(90 35.3181 27.1022)" fill="#C4C4C4"/>
<ellipse cx="37.2766" cy="30.9465" rx="0.961073" ry="0.979249" transform="rotate(90 37.2766 30.9465)" fill="#C4C4C4"/>
<ellipse cx="33.3596" cy="30.9465" rx="0.961073" ry="0.979255" transform="rotate(90 33.3596 30.9465)" fill="#C4C4C4"/>
<ellipse cx="39.2351" cy="34.7908" rx="0.961073" ry="0.979249" transform="rotate(90 39.2351 34.7908)" fill="#C4C4C4"/>
<ellipse cx="35.3181" cy="34.7908" rx="0.961073" ry="0.979249" transform="rotate(90 35.3181 34.7908)" fill="#C4C4C4"/>
<ellipse cx="39.2351" cy="19.4138" rx="0.961073" ry="0.979249" transform="rotate(90 39.2351 19.4138)" fill="#C4C4C4"/>
<ellipse cx="35.3181" cy="19.4137" rx="0.961073" ry="0.979249" transform="rotate(90 35.3181 19.4137)" fill="#C4C4C4"/>
<ellipse cx="31.4011" cy="19.4137" rx="0.961073" ry="0.979249" transform="rotate(90 31.4011 19.4137)" fill="#C4C4C4"/>
<ellipse cx="27.4841" cy="19.4137" rx="0.961073" ry="0.979249" transform="rotate(90 27.4841 19.4137)" fill="#C4C4C4"/>
<ellipse cx="31.4011" cy="27.1022" rx="0.961073" ry="0.979249" transform="rotate(90 31.4011 27.1022)" fill="#C4C4C4"/>
<ellipse cx="27.4841" cy="27.1022" rx="0.961073" ry="0.979249" transform="rotate(90 27.4841 27.1022)" fill="#C4C4C4"/>
<ellipse cx="29.4426" cy="23.2579" rx="0.961073" ry="0.979244" transform="rotate(90 29.4426 23.2579)" fill="#C4C4C4"/>
<ellipse cx="25.5256" cy="23.2579" rx="0.961073" ry="0.979255" transform="rotate(90 25.5256 23.2579)" fill="#C4C4C4"/>
<ellipse cx="29.4426" cy="30.9465" rx="0.961072" ry="0.979244" transform="rotate(90 29.4426 30.9465)" fill="#C4C4C4"/>
<ellipse cx="25.5256" cy="30.9465" rx="0.961073" ry="0.979255" transform="rotate(90 25.5256 30.9465)" fill="#C4C4C4"/>
<ellipse cx="31.4011" cy="34.7908" rx="0.961073" ry="0.979249" transform="rotate(90 31.4011 34.7908)" fill="#C4C4C4"/>
<ellipse cx="27.4841" cy="34.7908" rx="0.961073" ry="0.979249" transform="rotate(90 27.4841 34.7908)" fill="#C4C4C4"/>
<ellipse cx="33.3596" cy="23.2579" rx="0.961073" ry="0.979255" transform="rotate(90 33.3596 23.2579)" fill="#C4C4C4"/>
</g>
<path d="M25.591 77.911C25.591 78.4771 25.1234 78.9361 24.5465 78.9361C23.9696 78.9361 23.502 78.4771 23.502 77.911C23.502 77.3448 23.9696 76.8858 24.5465 76.8858C25.1234 76.8858 25.591 77.3448 25.591 77.911Z" fill="#FF2F4D"/>
<g opacity="0.21">
<ellipse cx="103.082" cy="42.7357" rx="0.961075" ry="0.979255" transform="rotate(90 103.082 42.7357)" fill="#C4C4C4"/>
<ellipse cx="105.041" cy="46.58" rx="0.961072" ry="0.979255" transform="rotate(90 105.041 46.58)" fill="#C4C4C4"/>
<ellipse cx="101.124" cy="46.58" rx="0.961072" ry="0.979255" transform="rotate(90 101.124 46.58)" fill="#C4C4C4"/>
<ellipse cx="103.082" cy="50.4243" rx="0.961075" ry="0.979255" transform="rotate(90 103.082 50.4243)" fill="#C4C4C4"/>
<ellipse cx="99.1653" cy="50.4243" rx="0.961075" ry="0.979244" transform="rotate(90 99.1653 50.4243)" fill="#C4C4C4"/>
<ellipse cx="105.041" cy="54.2686" rx="0.961075" ry="0.979255" transform="rotate(90 105.041 54.2686)" fill="#C4C4C4"/>
<ellipse cx="101.124" cy="54.2686" rx="0.961075" ry="0.979255" transform="rotate(90 101.124 54.2686)" fill="#C4C4C4"/>
<ellipse cx="105.04" cy="38.8914" rx="0.961072" ry="0.979244" transform="rotate(90 105.04 38.8914)" fill="#C4C4C4"/>
<ellipse cx="101.124" cy="38.8914" rx="0.961075" ry="0.979255" transform="rotate(90 101.124 38.8914)" fill="#C4C4C4"/>
<ellipse cx="97.2068" cy="38.8914" rx="0.961075" ry="0.979244" transform="rotate(90 97.2068 38.8914)" fill="#C4C4C4"/>
<ellipse cx="93.2898" cy="38.8914" rx="0.961075" ry="0.979249" transform="rotate(90 93.2898 38.8914)" fill="#C4C4C4"/>
<ellipse cx="97.2068" cy="46.58" rx="0.961072" ry="0.979244" transform="rotate(90 97.2068 46.58)" fill="#C4C4C4"/>
<ellipse cx="93.2898" cy="46.58" rx="0.961072" ry="0.979249" transform="rotate(90 93.2898 46.58)" fill="#C4C4C4"/>
<ellipse cx="95.2483" cy="42.7357" rx="0.961075" ry="0.979244" transform="rotate(90 95.2483 42.7357)" fill="#C4C4C4"/>
<ellipse cx="91.3313" cy="42.7357" rx="0.961075" ry="0.979255" transform="rotate(90 91.3313 42.7357)" fill="#C4C4C4"/>
<ellipse cx="95.2483" cy="50.4243" rx="0.961072" ry="0.979244" transform="rotate(90 95.2483 50.4243)" fill="#C4C4C4"/>
<ellipse cx="91.3313" cy="50.4243" rx="0.961072" ry="0.979255" transform="rotate(90 91.3313 50.4243)" fill="#C4C4C4"/>
<ellipse cx="97.2068" cy="54.2686" rx="0.961075" ry="0.979244" transform="rotate(90 97.2068 54.2686)" fill="#C4C4C4"/>
<ellipse cx="93.2898" cy="54.2686" rx="0.961075" ry="0.979249" transform="rotate(90 93.2898 54.2686)" fill="#C4C4C4"/>
<ellipse cx="99.1653" cy="42.7357" rx="0.961075" ry="0.979244" transform="rotate(90 99.1653 42.7357)" fill="#C4C4C4"/>
</g>
<g opacity="0.21">
<ellipse cx="21.6091" cy="23.2579" rx="0.961073" ry="0.979255" transform="rotate(90 21.6091 23.2579)" fill="#C4C4C4"/>
<ellipse cx="23.5676" cy="27.1022" rx="0.961073" ry="0.979249" transform="rotate(90 23.5676 27.1022)" fill="#C4C4C4"/>
<ellipse cx="19.6506" cy="27.1022" rx="0.961073" ry="0.979255" transform="rotate(90 19.6506 27.1022)" fill="#C4C4C4"/>
<ellipse cx="21.6091" cy="30.9465" rx="0.961073" ry="0.979255" transform="rotate(90 21.6091 30.9465)" fill="#C4C4C4"/>
<ellipse cx="17.6921" cy="30.9465" rx="0.961073" ry="0.979249" transform="rotate(90 17.6921 30.9465)" fill="#C4C4C4"/>
<ellipse cx="23.5676" cy="34.7908" rx="0.961073" ry="0.979249" transform="rotate(90 23.5676 34.7908)" fill="#C4C4C4"/>
<ellipse cx="19.6506" cy="34.7908" rx="0.961073" ry="0.979255" transform="rotate(90 19.6506 34.7908)" fill="#C4C4C4"/>
<ellipse cx="23.5671" cy="19.4137" rx="0.961073" ry="0.979249" transform="rotate(90 23.5671 19.4137)" fill="#C4C4C4"/>
<ellipse cx="19.6506" cy="19.4137" rx="0.961073" ry="0.979255" transform="rotate(90 19.6506 19.4137)" fill="#C4C4C4"/>
<ellipse cx="15.7336" cy="19.4137" rx="0.961073" ry="0.979249" transform="rotate(90 15.7336 19.4137)" fill="#C4C4C4"/>
<ellipse cx="11.8162" cy="19.4137" rx="0.961073" ry="0.979244" transform="rotate(90 11.8162 19.4137)" fill="#C4C4C4"/>
<ellipse cx="15.7336" cy="27.1022" rx="0.961073" ry="0.979249" transform="rotate(90 15.7336 27.1022)" fill="#C4C4C4"/>
<ellipse cx="11.8162" cy="27.1022" rx="0.961073" ry="0.979244" transform="rotate(90 11.8162 27.1022)" fill="#C4C4C4"/>
<ellipse cx="13.7751" cy="23.2579" rx="0.961073" ry="0.979249" transform="rotate(90 13.7751 23.2579)" fill="#C4C4C4"/>
<ellipse cx="9.85766" cy="23.2579" rx="0.961073" ry="0.979255" transform="rotate(90 9.85766 23.2579)" fill="#C4C4C4"/>
<ellipse cx="13.7751" cy="30.9465" rx="0.961072" ry="0.979249" transform="rotate(90 13.7751 30.9465)" fill="#C4C4C4"/>
<ellipse cx="9.85766" cy="30.9465" rx="0.961073" ry="0.979255" transform="rotate(90 9.85766 30.9465)" fill="#C4C4C4"/>
<ellipse cx="15.7336" cy="34.7908" rx="0.961073" ry="0.979249" transform="rotate(90 15.7336 34.7908)" fill="#C4C4C4"/>
<ellipse cx="11.8162" cy="34.7908" rx="0.961073" ry="0.979244" transform="rotate(90 11.8162 34.7908)" fill="#C4C4C4"/>
<ellipse cx="17.6921" cy="23.2579" rx="0.961073" ry="0.979249" transform="rotate(90 17.6921 23.2579)" fill="#C4C4C4"/>
</g>
<path fill-rule="evenodd" clip-rule="evenodd" d="M37.8647 77.6547C37.8647 76.947 38.4493 76.3733 39.1704 76.3733H103.67C104.391 76.3733 104.976 76.947 104.976 77.6547C104.976 78.3624 104.391 78.9361 103.67 78.9361H39.1704C38.4493 78.9361 37.8647 78.3624 37.8647 77.6547Z" fill="#2A2A2A"/>
<path fill-rule="evenodd" clip-rule="evenodd" d="M27.4189 77.6547C27.4189 76.947 28.0035 76.3733 28.7246 76.3733L34.4695 76.3733C35.1906 76.3733 35.7752 76.947 35.7752 77.6547C35.7752 78.3624 35.1906 78.9361 34.4695 78.9361L28.7246 78.9361C28.0035 78.9361 27.4189 78.3624 27.4189 77.6547Z" fill="#2A2A2A"/>
<path fill-rule="evenodd" clip-rule="evenodd" d="M24.5464 76.8859C24.1137 76.8859 23.763 77.2301 23.763 77.6547C23.763 78.0793 24.1137 78.4236 24.5464 78.4236C24.979 78.4236 25.3298 78.0793 25.3298 77.6547C25.3298 77.2301 24.979 76.8859 24.5464 76.8859ZM23.2407 77.6547C23.2407 76.947 23.8253 76.3733 24.5464 76.3733C25.2675 76.3733 25.8521 76.947 25.8521 77.6547C25.8521 78.3624 25.2675 78.9361 24.5464 78.9361C23.8253 78.9361 23.2407 78.3624 23.2407 77.6547Z" fill="#FF2F4D"/>
<rect x="39.6924" y="19.9904" width="50.1376" height="49.2069" rx="14" fill="#2A2A2A"/>
<path d="M64.563 48.8058C67.0613 48.8058 69.0865 46.8182 69.0865 44.3663C69.0865 41.9145 67.0613 39.9268 64.563 39.9268C62.0648 39.9268 60.0396 41.9145 60.0396 44.3663C60.0396 46.8182 62.0648 48.8058 64.563 48.8058Z" fill="#FF2F4D"/>
<path d="M62.9861 26.7217C70.7127 26.0583 78.0098 30.305 81.1233 37.2769C84.2367 44.2488 82.4731 52.3929 76.7396 57.5194C71.0061 62.6459 62.58 63.6128 55.7962 59.9227C54.4209 59.1734 53.5574 57.7609 53.5309 56.2174C53.5045 54.6738 54.3191 53.2336 55.6679 52.4394C57.0167 51.6451 58.6948 51.6174 60.0701 52.3667C63.7957 54.3912 68.4472 53.6662 71.3505 50.6085C74.2537 47.5509 74.6629 42.9459 72.3429 39.4412C70.0228 35.9364 65.5693 34.4321 61.5429 35.7931C57.5165 37.154 54.9513 41.0307 55.3221 45.1943C55.4594 46.7322 54.7502 48.2252 53.4617 49.1108C52.1733 49.9965 50.5013 50.1402 49.0756 49.4879C47.6499 48.8356 46.687 47.4863 46.5498 45.9484C45.69 36.188 53.0431 27.5867 62.9861 26.7217Z" fill="white"/>
<path d="M84.6071 31.677L82.5181 31.0107L84.6071 30.2931L85.3383 28.1915L86.0173 30.2931L88.1585 31.0107L86.0173 31.677L85.3383 33.7786L84.6071 31.677Z" fill="white"/>
<path opacity="0.4" d="M29.7692 37.8278L27.6802 37.1615L29.7692 36.4439L30.5004 34.3424L31.1794 36.4439L33.3206 37.1615L31.1794 37.8278L30.5004 39.9294L29.7692 37.8278Z" fill="#2A2A2A"/>
<path opacity="0.6" d="M102.673 59.1339L101.319 58.706L102.673 58.2451L103.147 56.8955L103.587 58.2451L104.975 58.706L103.587 59.1339L103.147 60.4835L102.673 59.1339Z" fill="#2A2A2A"/>
<path d="M79.1525 26.8371L76.251 25.9201L79.1525 24.9326L80.168 22.0406L81.111 24.9326L84.085 25.9201L81.111 26.8371L80.168 29.7292L79.1525 26.8371Z" fill="white"/>
<path opacity="0.4" d="M24.3146 32.9881L21.4131 32.0711L24.3146 31.0835L25.3301 28.1915L26.2731 31.0835L29.2471 32.0711L26.2731 32.9881L25.3301 35.8801L24.3146 32.9881Z" fill="#2A2A2A"/>
<path opacity="0.6" d="M99.0759 55.9927L97.1416 55.3813L99.0759 54.723L99.7529 52.795L100.382 54.723L102.364 55.3813L100.382 55.9927L99.7529 57.9207L99.0759 55.9927Z" fill="#2A2A2A"/>
<rect opacity="0.07" width="65.7284" height="6.1822" transform="matrix(0.72123 -0.692696 0.706082 0.70813 42.3032 66.5453)" fill="white"/>
<rect opacity="0.07" width="65.7284" height="2.06985" transform="matrix(0.72123 -0.692696 0.706082 0.70813 38.1255 61.9321)" fill="white"/>
</svg>
